<svg version="1" xmlns="http://www.w3.org/2000/svg" width="4000" height="4000" viewBox="0 0 3000.000000 3000.000000"><path d="M1452.5.6c-3.8.2-17.1.8-29.5 1.4-321.2 15.4-632.5 137-882 344.4-189.9 157.9-339.4 362.1-431.5 589.5C50 1082.7 15.1 1233.5 3.5 1393c-4.9 68.7-4.6 151.5 1 224.5 29.4 381.7 204.9 738.2 490.5 996.1 126 113.8 271.5 206 428 271.4 113.8 47.5 238.9 82 360.4 99.5 218.9 31.3 438.4 15.2 648.1-47.5 122.6-36.7 242.6-90.4 351.5-157.3 171.4-105.3 319.7-243.3 436.5-406.2 159.7-222.6 254.5-482.3 275.9-755.5 3.4-42.2 4.1-63.8 4.1-119-.1-54.9-.7-73.4-4-116.5-20.1-259.1-107.3-508.3-253-723.1-101.3-149.3-227-277.8-374.5-382.9-220.1-156.8-480.6-251.2-750.5-272-39.4-3-56.7-3.6-107-3.9-28-.2-54.1-.2-58 0zM1541 34c89.3 2.7 164.8 11.3 250.5 28.5 247.5 49.5 479.2 163.9 672 331.7 98.3 85.5 188 188 259.6 296.4 16.2 24.5 16.9 25.6 30.4 47.9 16.5 27.1 18.9 31.3 31 53 85.6 154.5 143.2 327.3 167.9 504 9.8 70 13.8 129.4 13.9 205 0 53.1-2 97.1-6.3 139.7-2.6 25.7-3.2 31.4-5.1 45.8-9.9 78.4-29.8 172.2-51.1 240-10 32.1-13 41.3-22 66.5-19.8 55.4-39.5 101.7-67.3 158-36.9 74.6-75.2 138.4-123.9 206-37.1 51.7-86.7 111.4-127.4 153.8-7.6 7.8-16 16.6-18.7 19.6-7.7 8.2-53.2 51.3-70.5 66.7-140.7 125-305 222.3-481.5 285.2-25.2 9-34.4 12-66.5 22-26.6 8.4-75.4 21.1-109.5 28.6-234.6 51.5-483.9 44.5-713-20-126.1-35.5-246.3-87.4-357-154.1-30.4-18.2-29.9-17.9-55.5-34.9-182-120.5-334.7-279.8-448-467.5C134.5 2076.3 65.9 1873.8 42.6 1665c-3.7-33-7.6-83-7.6-97 0-5.4 0-5.4 1.7-3 3.1 4.5 9.7 11.2 13.8 13.9 2.2 1.5 8.9 4.7 14.8 7 7.2 2.8 13.3 6.1 18 9.6 9.7 7.3 16.5 10.5 26.1 12.2 8.1 1.4 19.3 4 29.6 6.8 7.6 2.1 16.1 1.9 25.8-.7 6.6-1.7 8.5-1.9 9.2-.9.6 1 1.2 1 3.1-.2 2.9-1.9 8-1.4 12.5 1.2 2.2 1.3 5.3 1.9 10.9 1.9 4.3.1 8 .4 8.3.6.3.3-.1 1.2-.8 2.1-1.8 2.2-.4 3.1 1.6 1 2.1-2.1 4.9-3.2 14.4-5.6 9.3-2.3 9-2.3 9 .2 0 1.8.7 1.5 5.2-2.3 6.4-5.4 10.6-7.4 17.5-8.3 4.4-.6 5.4-.4 5.9.9.6 1.6 3.4 2.3 3.4.8 0-1.9 6.1-4.2 11.4-4.2 3.1 0 5.6-.4 5.6-1 0-.5.8-.6 1.7-.3 1 .4 1.2.8.6 1-.7.3-.9 1.1-.6 1.9.4 1.1 1.1 1 3.7-.9 2.5-1.8 4.5-2.2 10.4-2.2 6.5-.1 7.2.1 6.6 1.7-.7 2.2.5 2.3 3.2.3 2.5-1.9 6.8-1.9 10.6.1 2.6 1.3 2.9 2 2.5 4.4-.4 1.8-.2 3 .7 3.3 1.9.8 3.8 11.4 2.5 13.9-.9 1.6-.7 2 .8 2.4 1 .3 3 2.6 4.3 5.1 2.3 4.3 2.3 4.7.7 7.4-1.4 2.6-.7 4.4.8 1.9 1.1-1.9 3-1 6.3 3 2.7 3.3 3.1 4.3 2.2 6-1 1.8-.8 1.9 1.8 1.4 3.5-.7 11.7 3.9 10.9 6-.4.9.4 1.3 2.6 1.2 1.8 0 5.6.1 8.6.2 4.8.2 5.3.4 4.8 2.2-.6 2.5 0 2.5 4.1 0 1.9-1.2 4.2-1.8 5.1-1.5 1 .3 4.1.1 7.1-.5 5.6-1.1 7.1-.7 5.2 1.2-2.5 2.5-1.1 2.8 2 .5 4.6-3.4 9.1-4.7 16-4.7 5.5 0 5.8.1 4.8 1.9-.8 1.6.3 1.3 5.9-1.6 3.8-1.9 8.8-3.7 11-4 2.3-.3 4.1-.9 4.1-1.3 0-.7 8.5-6 9.6-6 .2 0 .4.7.4 1.5s-.4 1.5-1 1.5c-.5 0-1 .5-1 1 0 1.1 3.8-1 8.3-4.6 1.6-1.4 3.6-2.1 5-1.8 1.2.2 3.7.7 5.5 1 3.1.6 3.3.9 2.8 3.5l-.5 2.9 3.7-2.4c2.6-1.7 5.8-2.6 10.9-3 6.8-.7 7.2-.6 7.5 1.4l.3 2.2 2.7-2.1c2.7-2.1 6.5-2.5 12.3-1.2 2.3.5 2.9 1.2 2.8 2.8-.2 2.1-.2 2.1 3 .5 1.7-.9 6.4-1.8 10.4-2 6.9-.3 7.1-.3 6.6 1.8-.6 2.2-.5 2.1 3.3-.4 6.3-4.2 11.5-6.3 17.7-7.1 4.6-.5 5.7-.4 5.7.8 0 .8-.7 1.7-1.5 2.1-.8.3-1.5 1-1.5 1.5 0 .6 2-.3 4.4-2 3.6-2.6 5.5-3.1 11.5-3.5 6.5-.3 7.1-.2 7.1 1.6 0 2.5.1 2.5 4.2 0l3.3-1.9 4.3 2.5c2.7 1.6 4.2 3.2 4 4.2-.2 1.2.4 1.7 2.2 1.7 1.4 0 4.4.9 6.8 1.9 3.3 1.4 4.2 2.3 4.2 4.2 0 2.7.3 2.8 2.8 1.3 2.7-1.6 12.8 1.3 12.4 3.6-.3 1.4.1 1.6 1.5 1 2.2-1 8.9-1.4 12.6-.7 3.1.5 3.5 2.6 1 5.4-.9 1-1.1 1.8-.5 1.8.6 0 1.5-.6 1.9-1.3.4-.7 2.4-2.1 4.4-3 2.8-1.3 4.3-1.4 7.3-.6 2 .6 4.6.7 5.7.4 1.9-.6 2-.5.9 1.5-2 3.7-.6 4.2 3.6 1.1 3.6-2.7 4.7-3 11.1-2.9 6.1.1 6.9.4 5.7 1.6-1.6 1.5-1.9 4.2-.5 4.2.6 0 1.3-.5 1.6-1.1 1.7-2.6 5.6-3 9.6-.7 2.4 1.3 3.7 2.7 3.4 3.5-1.9 4.6-1.9 4.7-.2 4 .9-.4 2.3-.9 3-1.2 1.5-.6 7.7 4.7 7.7 6.7 0 .8-.5 1.9-1.2 2.6-1.9 1.9-.3 2.4 2.7.8 2.7-1.4 3.2-1.3 6.4.6 5.2 3.1 5.4 3.4 4.2 5.7-1.2 2.1.2 3.1 1.4 1.1.7-1.1 8.4-1.2 12.6-.1 2.3.5 2.5.9 1.8 2.8-.5 1.3-1.3 2.3-1.9 2.3-.5 0-1 .8-1 1.7.1 1.5.3 1.5 1.9-.5 1.1-1.2 2.2-2.2 2.6-2.2.4 0 1.9-.8 3.3-1.9 1.5-1 3.8-1.7 5.1-1.5 1.3.3 2.9 0 3.5-.5.6-.5 2.7-1.2 4.6-1.6 1.9-.3 4.4-.9 5.4-1.2 1.8-.5 1.8-.3-.3 2.5-3.1 4.5-2.6 4.6 2.9.6 2.8-2 5-3.9 5-4.3 0-1.8 7.7-5 10.9-4.5 2.2.4 3.1.2 2.6-.5-.4-.7.5-1.1 2.4-1.1 3.5 0 4.2 2.1 1.6 4.6-1.9 2-1.9 3.5 0 2.8.8-.4 1.5-1 1.5-1.5 0-.4 1.6-1.6 3.5-2.5 3.3-1.5 3.8-1.5 8 .1 4.7 1.8 5.1 2.4 3.4 5.6-.9 1.9-.9 1.9 1.3.7 1.3-.7 3.1-1.9 4.1-2.7 1.7-1.5 14.1-2 15.4-.7.4.3-.1 1.4-.9 2.3-4.7 5.5-1.1 4 6.9-2.8 1.8-1.6 5.2-3.4 7.5-4 2.4-.7 5.2-1.8 6.3-2.5 2.5-1.4 9.5-2.8 9.5-1.8 0 .4-1 1.8-2.2 3.1-1.2 1.3-1.8 2.6-1.4 3 .4.5 1.3.1 2-.8 2.6-3.6 8.2-5.8 15-5.8 6.7 0 7.4.7 4.3 4.6-1.5 2 .1 1.5 2.4-.6 2.4-2.2 6.1-3.2 14.8-3.7 5.6-.4 6.2-.3 5.1 1.1-2.2 2.6-.4 2.8 3.7.2 4.4-2.8 4.5-2.8 9.8-3.8 4.8-.9 8.5-.2 8.5 1.7 0 2.1 1.6 1.7 6.3-1.7 3.4-2.5 5-3 8.5-2.7 2.7.2 4.2-.1 4.2-.8 0-.9 7.7-4.4 9.7-4.4.3 0-.5 1.3-1.6 2.9-3 4.2-2.6 4.6 1.7 1.4 3.5-2.6 5.4-4.3 18.1-16.2 3-2.8 5.8-5.1 6.2-5.1.4 0 1.4-.6 2.1-1.3 1.7-1.7 7.2-3.7 12.4-4.6l4.1-.7-1.4 3.5c-1.7 4-2.1 4.2 6.8-3.1 2.5-2 5.7-4 7.2-4.3 1.5-.4 2.7-1.1 2.7-1.6s.4-.9 1-.9c.5 0 2.6-1.1 4.6-2.5 2.4-1.6 4.4-2.3 5.7-1.9 1.5.5 1.9.3 1.4-.8-.5-1.5 7.1-8.8 9.2-8.8.6 0 1.1-.6 1.1-1.3 0-1.7 5.9-7.3 8.6-8.1 1.2-.4 2.4-1.5 2.7-2.5.2-1.1 2-2.7 3.8-3.6 2.6-1.4 3.7-1.5 5.2-.6 1.5 1 2.2.9 3.5-.7 2.6-2.9 9.4-7.2 10.4-6.6.5.4 1.9-.3 3.1-1.3 1.2-1.1 4.2-2.8 6.7-3.9 4.4-1.9 8.9-5.5 17.9-14.4 4.4-4.3 6.4-5.9 12.1-9.6 1.7-1.1 1.4-.6-.7 1.3-1.8 1.6-3.3 3.4-3.3 3.9s-1.9 2.7-4.3 4.9c-6.7 6.2-12.1 12.5-10.7 12.5.6 0 4.4-3.3 8.3-7.3 9.6-9.6 28.2-26.7 29.2-26.7.4 0 2.2-1.3 3.9-3 5.9-5.6 7.6-7 8.5-7 .5 0 1.2-.9 1.6-2 .3-1 2.6-3.7 5.1-5.8 2.4-2.2 4.4-4.2 4.4-4.6 0-1.1 11.3-12.3 13.7-13.5 2.7-1.4 7-1.4 7.8-.1.4.6 1.1.8 1.6.5 1.3-.9 1.1 3.9-.3 5.3-.9.9-.9 1.2 0 1.2.7 0 1.2-.4 1.2-.9 0-1.8 6.6-2.2 10.3-.6 3.8 1.6 4.6 3.2 2.5 5.3-2 2-.1 2.5 2.7.6 2.5-1.6 2.9-1.6 8.1 0 4.6 1.5 5.4 2 4.9 3.7-.7 2.2-.6 2.3 3.1.9 1.8-.7 3-.7 3.9 0 .9.8 1.5.8 2 0 .7-1.1 9.5-1.4 9.5-.3 0 .5-1.1 2.1-2.5 3.7-4.1 4.8-2.8 5.1 2.5.6 2.7-2.2 5.9-4.2 7.2-4.2 1.3-.1 2.8-.5 3.5-1 .6-.5 4-1.7 7.6-2.7 6.3-1.9 6.4-1.9 6 0-1.1 4 2.6 1.5 13.7-9.4 20.3-19.9 30.3-31.6 21.9-25.7-1.6 1.2-3.3 2-3.6 1.6-.7-.6 4.4-7.7 6.4-8.9.7-.4 1.3-1.6 1.3-2.6 0-2.3 2.3-4.3 7.9-7 5.6-2.6 6.7-2.7 4.1-.1-1.1 1.1-2 2.6-2 3.4 0 .8-.6 1.7-1.2 1.9-.7.3-.8.6-.3.6.6.1 3.7-2.1 7-4.9 3.3-2.7 6.8-5 7.9-5 1 0 4.2-1.1 7-2.4 2.8-1.3 6.4-2.7 8-3.1 2.5-.5 2.8-.4 2.3 1.4-.7 2.8 1.4 2.7 4-.2 3.1-3.5 10.4-9.7 11.3-9.7 1.9 0 46.4-46 45.4-46.9-.3-.3-1.4.4-2.4 1.6-1 1.3-2.1 2.3-2.5 2.3-.4 0-2.9 2.3-5.5 5-5.1 5.4-6.8 6.3-4.9 2.8 1.4-2.5 15-16.8 16.1-16.8.5 0 .8.7.8 1.5 0 2.4 1.8 1.8 5.7-2 2-1.9 6-5.4 9-7.7 4.7-3.5 6.2-4.2 10.3-4.2 2.7-.1 5.2-.4 5.6-.9 1.3-1.2 3.4-.8 3.4.8 0 .8-.4 1.5-.9 1.5-1 0-2.4 3-1.7 3.7.2.2 2.8-1.4 5.7-3.7 4-3 6-3.9 7.7-3.5 1.3.3 2.9.2 3.5-.3 1.1-.8 9.5-3.2 11.2-3.2.4 0-.3 1.3-1.5 3-1.2 1.6-1.8 3-1.3 3s1.5-.9 2.3-2c.8-1.1 1.8-2 2.2-2 .5 0 3.3-2 6.4-4.5 3-2.5 6.1-4.5 6.8-4.5.7 0 2.7-1.3 4.6-3 1.8-1.6 4.6-3.5 6.2-4.2 1.5-.7 2.8-1.7 2.8-2.1 0-.4 2.2-3 4.8-5.7 2.6-2.7 5.4-6.1 6.2-7.6.8-1.5 2.7-4 4.3-5.7 1.5-1.6 2.7-3.4 2.7-3.9 0-1.5 16-17.7 18.1-18.3 1-.4 3.8-2.4 6.1-4.6 2.3-2.1 5-3.9 6-3.9 1.1 0 1.8-.7 1.8-2 0-1.1.4-2 .8-2s1.9-1.8 3.2-4c1.4-2.2 3.1-4 3.8-4 .6 0 1.2-1 1.2-2.3 0-1.3 1.9-4.4 4.5-7.3 2.4-2.7 4.4-5.5 4.5-6.2 0-.6.5-1.2 1-1.2.6 0 1-.4 1-.9 0-.6-1.2-.3-2.7.4-2.6 1.4-2.8 1.3-3.6-.8-1.1-3.1-.2-11.5 1.6-13.5.8-.9 2-2.7 2.6-3.9 1.1-2.2 1.1-2.2-1.4-1.1-1.4.6-2.6.9-2.8.7-4.2-7.1-4.5-9.3-2.1-12.7 1.8-2.7 1.2-4.1-1.1-2.2-2.3 1.9-4.1.6-5.5-4.3-1-3.9-1-4.9.4-6.8 2.4-3.4 2.1-5.1-.8-4.3-2.3.5-2.3.4-1.6-3.6.8-4.2 4.3-9 6.7-9 .7 0 1.3-.4 1.3-1 0-1.4 7-9 8.4-9 .6 0 1.6-1 2.1-2.2 1-2.2 8.5-7.2 9.4-6.2.2.2 1.1-.2 2-.9 2.1-1.8 5.1-2.9 5.1-1.8 0 .4-1.2 2.1-2.6 3.7-4.2 4.5-.9 4.1 3.9-.5 2.3-2.2 5.8-5.1 7.7-6.3 5.4-3.6 11-6.8 11.9-6.8.5 0 2.8-1.8 5.2-4 2.4-2.2 4.8-4 5.2-4 .5 0 2.9-2.3 5.4-5 2.5-2.8 5.3-5 6.4-5 1.1 0 1.9-.7 1.9-1.7 0-2 5.8-8.3 7.7-8.3.7 0 1.3-.6 1.3-1.3 0-1.9 6.2-9.7 7.7-9.7.7 0 1.3-1.1 1.3-2.4 0-1.3.9-3.5 2-4.9 1.1-1.4 2-3 2-3.6 0-.7.7-1.4 1.5-1.7.8-.4 1.5-1.2 1.5-1.9 0-3.8 19.3-23.9 26.5-27.6 2.2-1.1 6.3-3.3 9-4.8 2.8-1.6 6.4-3.2 8.2-3.5 3.7-.8 16.7-13.4 19.8-19.3 3.5-6.8 8.7-12.3 11.5-12.3 4 0 13.2-3.9 16.5-6.9 3-2.8 5.8-4.5 12.5-7.7 3.9-1.8 12.2-10 14.4-14.1 2.9-5.8 2.9-8.7-.1-11.4-5.9-5.4-7.6-5.9-18.7-5.9-9.3 0-11-.3-15.8-2.7-3.4-1.7-6.7-2.6-9.3-2.5-2.2.1-6.7-.5-10-1.2s-8-1.1-10.4-.8c-2.3.2-5.3-.1-6.5-.7-1.1-.6-5-1.3-8.6-1.5-6.5-.3-15.7-3.2-21.5-6.8-1.6-1-3.8-1.8-4.9-1.8-1.4 0-1.7-.6-1.4-2.4.4-2.1.2-2.3-2.2-1.6-2.2.6-3.1.2-5.7-2.9-2.2-2.7-2.8-4.2-2.3-5.7.7-1.8.5-2-1.9-1.6-1.8.2-3.3-.3-4.5-1.7-1.1-1.2-2.7-2.1-3.6-2.1-1.3 0-1.6-.7-1.2-2.9.4-2.6.2-2.9-1.7-2.4-1.2.3-2.4.9-2.6 1.4-.7 1-3.2.1-6.7-2.5-3-2.1-3.6-4.1-1.5-4.9.6-.2.9-.7.6-1.1-.3-.3-1.9 0-3.4.8-2.6 1.4-3.1 1.3-5.6-.5-1.5-1-3.3-1.9-3.9-1.9-.9 0-1-1.1-.5-3.8.5-3 .4-3.5-.6-2.4-1.9 1.8-3.8 1.5-7.7-1.4-2.8-2.2-3.3-3.1-2.8-5.5.5-2.6.4-2.8-1.7-2-1.9.7-3.1.3-6.1-2.2-3.4-2.9-3.7-3.4-2.7-6l1.1-2.7-2.8 1.4c-2.6 1.4-3 1.3-6.6-1.8-3.5-2.9-3.8-3.4-2.7-5.5 1.6-2.9.9-3.6-1.9-2.1-1.9 1-2.6.8-5.7-2.1-2.6-2.6-3.3-3.9-2.8-5.7.5-2 .3-2.3-1.4-1.7-1.5.4-3.3-.3-6-2.6-3.3-2.6-3.8-3.5-3.1-5 1.5-2.6 1.3-4.6-.2-3.1-1.4 1.4-5.8 1.6-5.8.4 0-.5-1.1-1.5-2.5-2.2-1.6-.9-2.5-2.2-2.5-3.8 0-2.1-.4-2.4-3-2-1.6.3-3 .1-3-.4 0-.4-.8-.8-1.7-.8-1 0-2.6-.7-3.6-1.4-1.7-1.3-1.7-1.6-.2-4.5 1.7-3.5.8-4-3-1.5-2.3 1.5-2.5 1.5-5-1.2-3.2-3.4-3.1-5.2.1-9.9 2.1-3.1 2.2-3.6.7-3-3.5 1.4-5.3 1.7-5.3.9-.1-.5-.5-2.9-1-5.4-.8-4.5-.2-7 2.7-9.8 3-3.1.4-4.5-2.9-1.5-1.8 1.6-1.8 1.5-1.6-1.4.1-1.7-.6-4.3-1.6-5.8-1.3-2-1.5-3-.7-3.8 1.8-1.8 1.3-4-.8-3.4-1.5.3-2.4-.6-4.2-4.4l-2.2-4.9 2.6-3.7c3.1-4.4 2.7-5.6-.8-2.3-3 2.8-4.4 2.3-7.1-2.7-1.8-3.4-1.9-4.2-.8-5.8.8-1 1.4-2.2 1.4-2.7 0-1.2-3.8-1-4.5.2-.9 1.4-2.5.2-1.9-1.4.3-.7-.6-2-2-2.9-2.5-1.7-2.6-4.5-.3-7.5.8-1.1.2-1-2.7.2-4.7 2-4.6 2-4.6 0 0-.8-.4-1.3-.8-1-.4.2-1.9-.4-3.2-1.4-2.2-1.7-2.3-2.2-1.2-3.9.6-1.2 1.2-2.3 1.2-2.7 0-.8-4.4.7-5.2 1.9-.4.7-2.3.3-5.5-1-4.3-1.8-4.8-2.3-4.5-4.8l.3-2.8-3.3 2c-3.2 1.9-3.6 1.9-7.8.4-2.5-.8-4.7-1.7-4.9-1.8-.3-.2.3-1.8 1.1-3.7l1.6-3.3-3.8 1.8c-2.2 1.1-4.3 1.9-4.8 1.9-1.5 0-2.4-3.3-1.2-4 .8-.5.7-1.2-.4-2.3-1.8-1.8-1-5.2 1.9-8.1 2.4-2.4 1.2-3.1-1.9-1-1.5.9-2.9 1.5-3.1 1.2-.2-.2-.8-2.9-1.3-5.9-.7-4.8-.6-5.9 1-7.9 2.3-2.8 2.3-4 .1-4-2.1 0-4.3-4.2-4.3-8.3 0-3.2 1.6-6.7 3.8-8.3.8-.6 1.3-1.7 1-2.4-.3-1-1-.8-2.6.8-1.2 1.2-2.6 2.2-3.2 2.2-1.3 0-2.4-4.6-1.6-6.6.4-.9.1-2.3-.5-3-1.1-1.3-1-2.9.6-6.7.6-1.5.4-1.6-1.9-.7-2.4.9-2.7.6-4.6-3-2.6-5.1-2.5-6.2.6-9.9 1.9-2.3 2.2-3.1 1-3.1-.8 0-1.9.6-2.3 1.3-1.9 3.1-4.1 2.6-6.8-1.5-2.6-3.9-2.7-4.7-.3-8 1.8-2.5.3-3.3-2.6-1.5-2.4 1.6-2.5 1.6-5.4-2.1-2.8-3.5-2.9-3.9-1.5-6.6 1.9-3.5 1.1-4.3-2.2-2.2-2.8 1.9-3.1 1.8-8.9-2.8-1.7-1.4-1.7-1.6-.2-3.8 2.7-3.8 1.4-5.4-1.9-2.2-1.8 1.8-5.2 1.3-9.1-1.3-2.8-1.8-2.5-4.2.8-7.5 1.1-1.1 1.7-2.3 1.3-2.6-.4-.4-1.4.2-2.4 1.3-.9 1.1-2.7 2.6-3.9 3.3-2 1.1-2.6.9-6-2.2-3.3-3.1-3.6-3.7-2.4-5.5 1.7-2.9 1.5-3.4-1.2-2.7-1.9.5-2.9-.1-5-2.8-3.1-4.2-3.3-5.9-.5-8.7 2.9-2.9 1.6-3.5-2.3-1.1l-3.4 2.1-3.7-3.3c-3.7-3.3-4.7-6.1-2.4-6.9.6-.2.9-.8.5-1.2-.5-.5-2-.3-3.4.4-2.2 1-3.2.8-6.6-1.1-3.5-2-3.9-2.6-3.4-5 .6-3.2.4-3.4-2.9-1.2-2.2 1.4-2.7 1.4-6.9-.5-4.8-2.1-5.8-4.4-3.3-7 .9-1.1.7-1-1.3 0-1.4.8-3.3 2-4.2 2.7-1.3 1.1-2.7 1.1-7.3.2-5.3-1.1-5.6-1.3-5.1-3.6.5-1.9.3-2.2-1.1-1.7-1 .4-2.8 1.3-4 2.1-1.3.8-2.9 1.2-3.7.9-.8-.3-1.7-.3-2 .1-.4.3-2.7.6-5.2.7-4.2 0-4.5-.1-4.1-2.2.5-2.8.3-2.8-3.8-.3-2.9 1.8-3.6 1.9-5.9.7-1.4-.8-2.3-1.6-2-1.9.3-.4.1-.9-.5-1.3-.6-.3-1.1-.1-1.1.5s-.4.9-1 .5-.6-1.5 0-3.1c1.3-3.4 1.3-3.4-1.2-3.4-1.5-.1-3.2-1.4-5-3.9-2.3-3.5-2.5-4.1-1.3-5.8 2.1-2.7 1.8-3.6-1-3.1-2.1.4-2.9-.2-5-3.9l-2.6-4.3 2.2-3.1c2.6-3.7 2-4.7-1.5-2.4l-2.6 1.7-1.9-4.3c-1.7-3.9-1.7-4.7-.5-6.7.8-1.2 1.9-3.3 2.3-4.6.8-2 .7-2.2-1.4-1.9-1.8.4-2.5-.1-3.4-2.8-1.7-5.1-1.3-8.5 1.5-11.9 3.1-3.7 2.4-5.3-1-2.1-2.7 2.6-3.8 1.7-5.5-4.3-.8-3.2-.7-4.6.4-7 1.6-3.2 1.2-4.7-.7-2.8-2 2-3.4 1.4-6.3-2.4-2.7-3.5-2.7-3.7-1.2-7 1.5-3.1 1.5-3.3-.1-2.7-.9.3-2.2 1-2.9 1.5-1.6 1.3-5.5-7.6-4.7-10.8.3-1.3 1-2.4 1.5-2.4.4 0 1.3-.9 1.9-2 1.3-2.4-.2-2.7-2.4-.5-.8.8-2 1.5-2.6 1.5-1.3 0-3.3-4.9-2.6-6.6.2-.6.1-1.5-.4-2s-.2-2.3.7-4.2c1.7-3.4 1.1-5.4-.9-3.4-1.9 1.9-2.6 1.5-4.8-2.8-2.6-5-2.5-5.6.5-9.6 3.1-4.1 3.2-5.4.3-2.7-3.7 3.3-5.1 3.2-8-.6-3.3-4.4-3.4-5.5-.6-8.3 2.9-2.9.7-3.6-2.8-.9l-2.6 2.1-3.9-2.8c-3.1-2.1-3.9-3.2-3.6-5 .4-2.1.1-2.2-2.3-1.7-1.9.4-4.2-.1-6.9-1.5-4.6-2.3-4.4-2-3.1-5.5l1-2.5-3 1.5c-2.8 1.5-3.2 1.4-7-1.1-4.3-2.8-4.6-3.5-3-6.4.9-1.7.7-1.8-2-1-2.5.7-3.4.4-6.6-2.7-3-2.8-3.4-3.7-2.3-4.4.8-.5 1-.9.5-.9s-.3-.7.5-1.6c1.1-1.3.7-1.3-2.9.1-4 1.6-4.3 1.6-7.9-.6-2.1-1.2-4-2.4-4.2-2.5-.2-.2.4-1 1.3-1.9 1.9-1.9 2.2-5 .4-3.9-.7.4-2.1 1.4-3 2.2-1.5 1.3-2.6 1.3-7.8.2-6.2-1.3-6.8-1.8-4.8-3.8 2.1-2.1.2-2.2-4.1-.2-4.5 2.2-17.1 3.9-17.1 2.3 0-.5.7-1.8 1.5-2.9.8-1 1.4-2.4 1.5-2.9 0-.6-.4-.5-.8.1-.4.7-2.9 2.4-5.6 3.8-3.7 1.9-6.4 2.6-10.7 2.6-3.3 0-5.9-.3-5.9-.8 0-.4.6-1.9 1.4-3.3l1.4-2.7-4.7 2.9c-3.5 2.2-6.4 3-11.8 3.5-4.9.5-7.3.3-7.3-.4 0-.6.5-1.2 1.1-1.4.7-.2 1-.9.8-1.5-.2-.7-2.1 0-4.9 1.9-2.5 1.7-5.8 3.5-7.5 4-3.1 1-16 2-13.7 1.1.6-.2 1.2-1.1 1.2-1.8s.6-1.5 1.3-1.8c.6-.2.8-.8.4-1.3-.5-.5-1.3-.1-1.8.9-3.2 5.7-17.9 6.2-17.9.5 0-2.2-.1-2.2-4.7.1-3.3 1.7-4.5 1.9-8.8.9-6-1.2-6.1-1.3-4.5-3.3 1.9-2.3.7-2.7-2.6-1.1-2.5 1.4-3 1.4-4.5 0-1.1-1-1.9-1.2-2.4-.5-.5 1-3.4.2-5.3-1.4-.2-.2.4-1.7 1.3-3.4 1.8-3.5.4-4.2-2.7-1.4-1.8 1.6-2.1 1.5-5.8-2.2-3.4-3.3-3.7-4-2.4-5.2 1.6-1.6 1.9-4.3.5-4.3-.5 0-1.7.7-2.6 1.6-1.5 1.5-1.9 1.4-4.8-1.2-4.5-4.1-4.8-4.7-3.1-6.5 1.6-1.7 1.9-3.9.5-3.9-.5 0-1.4.7-2.1 1.5-1.9 2.3-3.7 1.8-7.6-1.8l-3.5-3.2 2-2.4c3.5-4 2.1-6-1.4-2.1-2.4 2.6-3.7 2.5-7.4-.6-3.6-3-3.8-4.6-1.1-8.1 2.8-3.6 1.7-4.1-2-.9-3.8 3.1-3.9 3.2-8.5.4-3.2-1.8-3.6-2.5-3.1-5 .6-3.3.4-3.4-3.4-1.1-2.6 1.5-3 1.5-6.1-.4-1.9-1.1-4-1.8-4.6-1.6-.9.3-1.1-.4-.6-2.8.7-3.5.5-3.5-4.8.4-1.8 1.3-4.6 1.9-9.7 2.1-4 .1-7.2-.1-7.2-.6 0-.4.5-.8 1-.8.6 0 1-.7 1-1.5 0-2-1.5-1.9-3.7.3-2.5 2.5-9 6.2-9.7 5.4-1-.9-4.6-1-5.2 0-1 1.7-5.3.8-5.9-1.2-.7-2.2-2-2.6-3.1-.9-.8 1.4-5.9.4-9.2-1.7-1.8-1.2-2.2-2.1-1.8-4 .6-2.1.4-2.3-2.1-1.9-2.1.4-3.7-.2-6.3-2.5-3.1-2.7-3.3-3.2-2.2-5.1 1.7-2.7 1-3.4-1.7-1.7-1.6 1-2.5 1-3.9.2-1-.6-3.2-1.5-5-1.9-3.6-.8-3.7-.8-2-3.5 1.6-2.5.3-3.7-1.9-1.8-3 2.5-4.9 2.7-10.2 1-4.1-1.3-5-1.9-4.5-3.4.6-2.1-.6-2.4-2.4-.6-1.2 1.2-14.7 1.6-15.9.4-.3-.3 0-1.2.7-2.1 2.1-2.6.3-2.9-3-.5-2.8 2-3.4 2.1-6.2.9-1.8-.7-4.5-1.2-6-1.1-2.9.2-2.9.2-1.2-2.3 2.3-3.6 1.2-4-3.3-1.4-3.7 2.1-4.3 2.2-8.7.9-4.5-1.2-4.7-1.4-4.1-4.1.8-3.3.7-3.4-3.1-1.4-2.5 1.3-3 1.3-4.7-.3-1.1-.9-2.1-1.6-2.3-1.5-.2.2-1.4.3-2.5.3-1.8 0-2.1-.4-1.6-2.9.5-2.3.3-2.9-.9-2.7-.9.1-1.9.9-2.4 1.6-.7 1.2-1.8 1-5.9-1-4.4-2-5-2.6-4.5-4.7.7-2.7.5-2.8-3-.9-2.3 1.1-3.3 1.1-7.1-.3-4.6-1.6-5.3-2.8-3.4-6.2.9-1.9.9-1.9-1.3-.7-1.3.7-3 1.9-3.9 2.6-1.4 1.1-2.6 1-7-.1-4.6-1.2-5.4-1.7-5.2-3.5.3-2.6.1-2.7-3.8-.7-2.7 1.4-3.2 1.4-5.2 0-1.4-1-3.2-1.3-5.4-.9-3.3.6-4.7-.9-1.8-2 1.8-.7 2-3.6.2-3.6-.7 0-2 .9-3 2-2.1 2.5-4.1 2.5-8.3-.1-3.5-2.1-4.3-4.6-2.2-6.7 1.6-1.6.3-1.5-3.1.3-2.7 1.4-3.1 1.3-7-1.5-3.5-2.6-4-3.4-3.5-5.5.7-2.8.2-3-2.4-1.4-1.4.9-2.6.7-5.3-.7-1.9-1-4.2-1.7-5.2-1.5-1.6.2-1.7-.1-.8-1.8 2.3-4.3.9-5.4-2.9-2.1-1.7 1.4-3.7 2-7.4 2-2.9 0-4.6-.4-4-.9 4.8-4.5 54.8-39.5 75.1-52.7C819.8 192.7 946.5 134.1 1083 93.5c146.6-43.6 305.2-64.2 458-59.5zm-174.5 1375.1c-.4.5-1.3.9-2.2.9-1.3 0-1.3-.3-.3-1.5 1.3-1.5 3.5-1.1 2.5.6z"/><path d="M728 353.5c-.8.9-.8 1.5-.2 1.5 1.2 0 2.6-1.9 1.9-2.6-.2-.2-1 .2-1.7 1.1zM858.5 404c-.3.5-.2 1 .4 1 .5 0 1.3-.5 1.6-1 .3-.6.2-1-.4-1-.5 0-1.3.4-1.6 1zM1342 687.1c0 .5.5.7 1 .4.6-.3 1-.8 1-1.1 0-.2-.4-.4-1-.4-.5 0-1 .5-1 1.1zM1433.5 818c-.3.5-.1 1 .4 1 .6 0 1.1-.5 1.1-1 0-.6-.2-1-.4-1-.3 0-.8.4-1.1 1zM1839.9 973.4c-.2.2-5.6 1.8-11.9 3.4-24.5 6.4-109.4 29.3-110 29.7-.9.6 3.6 17.3 5.1 19.2 3.4 4 11.1 5.8 31.9 7.3 26.7 1.9 34.4 3.6 37.6 8.5 2.8 4.2 1.8 4.7-19.8 11-24.3 7.1-33.8 15.4-33.8 29.5 0 7.6 8.6 42.4 23.1 93.9 2.7 9.5 4.9 17.8 4.9 18.5 0 .6-2.6 2.1-5.9 3.4-11 4.3-42.6 20.3-57.7 29.4-27.8 16.6-50.1 33.7-70.9 54.3-32.7 32.3-52.5 65-61.6 101.5-2.1 8.4-2.4 11.7-2.3 29 .1 23.2 1.4 30.6 5.4 30.4 1.4-.1 21-5.1 43.5-11.2 57.5-15.5 156-41.9 168.5-45.2 5.8-1.6 25.6-6.9 44-11.8 18.4-5 36.9-10 41-11 15.7-4.2 116.7-31.2 120-32.2 1.9-.5 46.7-12.5 99.5-26.7 52.8-14.1 96.2-25.8 96.4-26 .9-.6-3.1-11.9-7.4-21.1-21.3-45.3-74-79.3-144.5-93.2-29.1-5.7-38.3-6.5-77-6.5-27.6.1-38.6.4-49.4 1.8-7.6 1-14 1.6-14.2 1.4-.2-.1-7-25.4-15.3-56.2-8.2-30.8-19.1-71.3-24.1-90-5-18.7-9.5-35.7-10.1-37.8-.7-2.5-1.5-3.7-2.8-3.7-1 0-2 .2-2.2.4zM1575.2 1199.2c-.7.7-1.2 1.5-1.2 2 0 1.2 2.8-.2 3.4-1.8.7-1.7-.6-1.8-2.2-.2zM1525 1230c-.9.6-1 1-.3 1 .6 0 1.5-.5 1.8-1 .8-1.2.4-1.2-1.5 0zM1514.5 1240.1c-1.1 1.7.1 2.1 1.5.4.8-.9.8-1.5.2-1.5-.6 0-1.4.5-1.7 1.1zM2197 1278.5c-25.2 6.8-41.5 11.2-85.5 23-19.8 5.3-45.2 12.1-56.5 15.1-11.3 3.1-33.1 8.9-48.5 13-45.3 12.2-83.1 22.3-96.5 25.9-6.9 1.9-25.1 6.7-40.5 10.9-15.4 4.1-37.4 10-49 13.1-21.9 5.9-61.1 16.4-97 26-41.6 11.1-148.3 39.7-164.4 44.1-9 2.4-16.6 4.6-16.9 4.8-.7.8 8 32.6 9 32.6.9 0 11.6-2.8 51.3-13.5 23.9-6.5 101-27.1 153.5-41.1 19.5-5.3 44.7-12 56-15 11.3-3.1 33-8.9 48.3-13 46.3-12.4 83.5-22.4 96.7-25.9 22.5-6.1 69.2-18.6 84-22.5 8-2.1 20.4-5.4 27.5-7.4 7.2-1.9 25.6-6.8 41-11 15.4-4.1 40.8-10.9 56.5-15.1 15.7-4.2 35.9-9.6 44.9-12.1 9-2.4 16.6-4.5 16.8-4.8.3-.3-1.4-7.7-3.7-16.5-3.4-12.5-4.7-16.1-5.9-16-.9.1-10.4 2.5-21.1 5.4zM2186.5 1318.4c-4.4 1.3-15.2 4.2-24 6.5s-18.9 5.1-22.5 6.1c-3.6 1-12.8 3.5-20.5 5.5-7.7 2-17.8 4.7-22.5 6-4.7 1.3-17.3 4.7-28 7.5-10.7 2.9-25.8 6.9-33.5 9-21.9 5.9-71.7 19.2-108.5 29-8.5 2.2-22 5.9-30 8-16.7 4.6-54.6 14.8-80 21.5-9.6 2.5-23.1 6.1-30 8-19.7 5.4-120.4 32.4-124.7 33.4-8.4 2-78.7 21.2-79.1 21.6-.6.5 1.6 9.1 9.8 39.5 3.9 14.6 8.4 31.2 9.9 37 1.6 5.8 7.7 28.5 13.6 50.5 5.9 22 12 44.7 13.5 50.5 1.6 5.8 8 29.9 14.4 53.6 6.3 23.7 13.1 48.9 15 56 1.9 7.1 8.4 31.6 14.6 54.4 6.1 22.8 12.5 46.4 14.1 52.5 1.6 6 4.2 15.9 5.9 22 4.5 16.8 20.6 77 23 86 1.1 4.4 3.4 12.7 5 18.5 1.6 5.8 5.2 19.3 8 30 2.9 10.7 7.9 29.4 11.1 41.5 3.3 12.1 8 29.6 10.5 39 2.5 9.3 6 22.6 7.9 29.5 1.9 6.9 5 18.3 6.9 25.5 1.9 7.1 5.2 19.7 7.4 28 2.3 8.2 8.4 31.2 13.7 51 5.3 19.8 10.3 38.5 11.1 41.5.8 3 2.3 8.6 3.4 12.5 1 3.8 7.1 26.6 13.5 50.5 6.5 23.9 13.4 49.8 15.5 57.5 2 7.7 6.3 23.7 9.5 35.5 3.1 11.8 7.7 28.7 10 37.5s5.2 19.4 6.3 23.5c2.5 9.2 20.5 76.2 23.8 88.5 1.3 4.9 2.7 10.5 3 12.3.4 2 1.2 3.2 2.3 3.2.8 0 10.1-2.3 20.6-5.1 10.4-2.8 27.3-7.3 37.5-10.1 10.2-2.7 24.1-6.4 31-8.3 6.9-1.8 13.4-3.5 14.5-3.8 1.1-.3 17.1-4.6 35.5-9.5 33.7-9.1 45.8-12.4 71.5-19.2 25.4-6.7 78.7-21 95.5-25.6 25.8-7 76.5-20.6 106.5-28.5 23.4-6.3 47.5-12.7 65-17.4 8.8-2.4 27.3-7.4 41-11 13.8-3.7 29.7-7.9 35.5-9.5 5.8-1.6 19.3-5.2 30-8 29.1-7.8 30-8.1 30-9.2 0-1-14.2-54.6-23.5-88.8-4.6-17.1-14.1-52.2-17.5-65-1.5-5.8-6.3-24-10.8-40.5-4.4-16.5-8.2-30.9-8.5-32-.2-1.1-4.4-16.4-9.1-34-4.8-17.6-10.5-38.8-12.7-47-2.2-8.3-4.8-18.2-5.9-22-3.2-11.6-19.6-72.8-25.4-95-1.9-7.2-5.3-20-7.7-28.5-6.3-23.4-15.4-57.4-20.5-76.5-2.5-9.4-5.1-19.3-5.9-22-.8-2.8-3.3-12-5.5-20.5-2.3-8.5-4.8-18-5.6-21-.8-3-2.6-9.6-3.9-14.5-3-11.5-3.2-12.1-16.5-61.5-6.1-22.8-12-44.7-13-48.5-1-3.9-5.1-18.9-9-33.5-3.9-14.6-8.6-32.1-10.4-39-2.8-10.2-23-85.7-28.1-104.5-.7-2.8-7.2-27.1-14.5-54-13.2-49.4-16.6-61.9-21.9-82-1.6-6.1-6.1-22.9-10.1-37.5-3.9-14.6-8.7-32.4-10.6-39.5-1.9-7.2-3.8-14.4-4.2-16-1.1-3.8-2.6-3.9-12.7-1.1zm43.4 262.9c4.4 2.9 9.1 11.3 9.1 16.2v3.1l-17 4.5c-10.9 2.8-17 4.9-17 5.7 0 .7.9 3 2 5.1 7.2 14.2 24.6 14 33.5-.3.7-1.1 1.5-1.3 2.4-.7 1.2.8 1 1.8-1.2 6.3-4.2 8.5-11.8 12.8-22.6 12.8-10.2-.1-16.8-4.7-21.8-15.5-2.2-4.9-2.7-7.4-2.8-14 0-7 .4-8.7 2.9-13.3 5-9 13-13.5 22.9-12.8 4.1.3 7 1.2 9.6 2.9zm-60.9 14.3c4.1 3.5 5.3 6 8.5 17.9 1.4 5.5 3.5 13 4.6 16.7l2 6.7 4.2.3c2.7.2 4.3.8 4.5 1.8.3 2-23.8 8.5-25 6.7-1.3-2-1-2.3 3.1-4.2l3.9-1.7-3.9-15c-4.3-16.5-5.8-20-9.3-22.4-4.4-2.8-12.8.8-17.5 7.5l-2 2.8 4.4 16.2c2.5 9 4.5 16.5 4.5 16.7 0 .2 2.1.4 4.6.4 3.7 0 4.5.3 4.2 1.7-.2 1.1-3.2 2.4-10.3 4.3-5.5 1.5-11 3-12.1 3.4-1.6.5-2.3.2-2.7-1.3-.3-1.5.4-2.3 3.4-3.7 2.2-.9 3.9-1.9 3.9-2.1 0-1.9-8.3-31-9.5-33.4-3.5-6.7-11.8-6-19.2 1.6l-4.1 4.4 2.5 9.3c1.4 5.1 3.5 12.7 4.7 16.8l2.1 7.5 4.3-.2c3.5-.1 4.2.1 4.2 1.7 0 1.5-1.3 2.3-5.5 3.5-3 .8-7.9 2.2-10.9 3-3 .8-6.1 1.5-7 1.5-2.8 0-1.7-2.9 1.7-4.6 1.7-.9 3.4-1.8 3.6-2 .2-.2-1.8-8.5-4.5-18.5l-4.9-18.1-4.7.5c-4.5.6-4.8.4-4.8-1.6.1-2.5 12.2-12.3 13.9-11.3.5.4 1.5 2.2 2.1 4.1.6 1.9 1.5 3.5 1.8 3.4.4 0 2.1-1.9 3.7-4.2 7.7-10.6 20.6-13.5 26.5-6 1.1 1.4 2.2 2.4 2.3 2.2.2-.2 1.6-2.4 3.2-4.7 6.2-9.3 18.9-13.1 25.5-7.6zm-188.3 34c5.5 21.5 5 20.4 7.2 16.8 4.6-7.6 16.4-14.5 21.8-12.8 7.4 2.4 10 6.4 14.3 22.4 6.4 23.7 5.5 21.8 10.3 22.2 2.8.2 4.2.8 4.2 1.7 0 1.9-23.7 8.4-24.7 6.8-1.3-2-1-2.3 3.2-4.2 2.8-1.3 3.9-2.3 3.6-3.4-.3-.9-2.1-7.6-4.1-15-5.6-21.1-7.5-23.6-15.6-21.2-4.8 1.5-12.9 8.5-12.9 11.3 0 1.1 1.9 8.9 4.2 17.4l4.2 15.4h4.4c3.6 0 4.3.3 4 1.7-.3 1.6-4.4 3-22.5 7.8-1.8.4-2.3.1-2.3-1.5 0-1.3 1.2-2.6 3.5-3.7 1.9-.9 3.5-1.9 3.5-2.3 0-.3-3.4-13.4-7.5-29-4.2-15.7-8.1-30.2-8.6-32.3l-1-3.9-5 .7c-4.5.6-4.9.5-4.9-1.3 0-1.5 2.1-3.4 7.3-6.5 3.9-2.5 7.6-4.4 8.1-4.3.5.1 2.9 7.8 5.3 17.2zm94.2-7.3c4.4 2.9 9.1 11.3 9.1 16.2v3.1l-17 4.5c-10.9 2.8-17 4.9-17 5.7 0 .7.9 3 2 5.1 7.2 14.2 24.6 14 33.5-.3.7-1.1 1.5-1.3 2.4-.7 1.2.8 1 1.8-1.2 6.3-4.2 8.5-11.8 12.8-22.6 12.8-10.2-.1-16.8-4.7-21.8-15.5-2.2-4.9-2.7-7.4-2.8-14 0-7 .4-8.7 2.9-13.3 5-9 13-13.5 22.9-12.8 4.1.3 7 1.2 9.6 2.9zm-129.9 22.4c.7 3.5 1.5 6.3 1.9 6.3.3 0 3.6-.9 7.3-1.9 3.6-1.1 6.9-1.7 7.2-1.3.3.3.6 1.5.6 2.8 0 1.9-1 2.4-6.7 4-3.8.9-6.9 1.8-7.1 2-.7.5 9.2 36 10.6 38.1 1.9 2.9 6.4 3 10.3.2 1.6-1.1 3.7-1.8 4.5-1.5 1.5.6 1.5.9.2 2.9-3.4 5.1-11.8 8.7-17.4 7.3-4.5-1.2-6.9-4.7-9.3-13.6-8.5-32.3-8.1-31-11-30.3-4.5 1.2-6.5.9-6.9-1-.3-1.2.8-2.2 4-3.6l4.3-1.8v-7.8c0-7.6.1-7.9 2.5-8.5 3.1-.8 3.6-.1 5 7.7zm-88.6 3.5c1.7 8.8 13 49.8 13.7 49.8.6 0 10.7-17.7 12.7-22.3.2-.4-1.5-.7-3.7-.7-2.3 0-4.2-.5-4.2-1-.1-.6-.2-1.5-.3-2.2-.1-1.7 23.7-8 24.6-6.5 1.4 2.2.8 2.8-4 4.8-4.3 1.8-5.4 2.9-9 9.3-2.3 4.1-4.2 7.8-4.2 8.3 0 .6 5.7 6.3 12.8 12.7 12.4 11.4 12.8 11.7 16.5 11.2 3.2-.6 3.7-.4 3.7 1.4 0 1.1-.1 2-.3 2-.1 0-3.3.9-7 1.9l-6.7 2-11.7-11c-6.3-6-11.9-10.9-12.4-10.9s-1.8 1.9-3 4.2c-2.1 4.2-2.1 4.3-.4 11.6l1.7 7.5 4.9-.6c4.4-.5 4.9-.4 4.9 1.3 0 1.5-1.2 2.3-5.2 3.4-21.6 6-21.8 6-21.8 3.2 0-.7 1.8-2.1 4-3.1s4-2.1 4-2.4c0-.4-3.4-13.5-7.5-29.1-4.2-15.7-8.1-30.2-8.6-32.3l-1-3.9-5 .7c-4.5.6-4.9.5-4.9-1.3 0-1.5 2.1-3.4 7.3-6.6 3.9-2.4 7.7-4.5 8.3-4.5.6-.1 1.4 1.4 1.8 3.1zm-14 32.9c.5.5.9 2.3.9 4 0 4.6-2.6 6.2-9.1 5.5l-5.3-.6-2 4.4c-2.8 6.4-2.5 12.5 1.3 25.6l3.3 11.5 4.6-.3c3.7-.3 4.8 0 5.3 1.4.3.9.5 1.8.4 1.9-.7.5-24 6.5-25.3 6.5-2.7 0-1.6-2.9 1.8-4.6 1.7-.9 3.4-1.8 3.6-2 .2-.2-1.8-8.5-4.5-18.5l-4.9-18.1-4.7.5c-4.5.6-4.8.4-4.8-1.6 0-1.5 2-3.7 6.5-7 3.5-2.7 6.8-4.6 7.3-4.3.5.3 1.7 2.7 2.7 5.3 2.1 5.7 3.5 7.5 3.5 4.7 0-3.1 4.8-12 7.3-13.7 4-2.6 9.6-2.9 12.1-.6zm-120.6 16c7 3.5 11.8 8.7 15.6 16.9 9.4 20.3 3.4 41.5-14.4 50.5-5.8 2.9-37.7 11.8-39.7 11.1-2.6-1.1-1.2-3.4 3.2-5 2.9-1.2 4.5-2.4 4.5-3.5 0-1.4-13.4-52.2-15.6-59.4-.3-1.1-1.2-1.6-2.2-1.3-.9.2-3.4.7-5.4 1.1-3.5.5-3.8.4-3.8-1.7s1.3-2.7 17.3-7c22.4-6 31.2-6.4 40.5-1.7zm62.3 2c3.7 2.6 5.6 7 10.1 23.8 4.7 17.7 7 20.9 11.3 16.1 1-1.1 2.2-1.7 2.6-1.4 1.7 1 .9 3.6-2 6.5-4.1 4.1-10.2 4.1-14 0l-2.7-2.9-2.8 4.4c-3.8 5.9-8.7 8.8-15.2 8.8s-10-2.2-12.6-8.1c-1.7-3.9-1.9-5.2-.9-8.2 1.6-5.6 8.2-11.7 20.8-19.5 3.8-2.3 4.1-2.8 3.4-5.4-3-10.4-7.4-13.1-16.1-9.6-4 1.6-4 1.6-4 7 0 5.3-2.2 9.4-5.1 9.4-2.4 0-4.9-2.2-4.9-4.5 0-13.1 21.2-24 32.1-16.4z"/><path d="M2211 1584.8c-4.6 2.4-8 9-8 15.4 0 2.6.4 4.8.9 4.8 2.4 0 20.9-5.3 22.9-6.6 5.9-3.8-2-15.4-10.5-15.4-1 0-3.4.8-5.3 1.8zM2056 1625.8c-4.6 2.4-8 9-8 15.4 0 2.6.4 4.8.9 4.8 2.4 0 20.9-5.3 22.9-6.6 5.9-3.8-2-15.4-10.5-15.4-1 0-3.4.8-5.3 1.8zM1692.7 1700.9c-3.8 1-7 2.1-7.2 2.2-.2.3 10.3 40.7 15.4 58.7 1.2 4.2 1.3 4.3 4.4 3.6 20.2-4.3 28.4-16.6 24.3-36.2-4.9-23.6-18-33.6-36.9-28.3zM1779.5 1722.7c-5.5 3.5-11.1 9-12.5 12.3-.9 2.2-.8 3.5.4 6.4 2.8 6.8 10.3 7 16.8.3 2.1-2.2 3.8-4.6 3.8-5.3 0-1.5-3.7-15.5-4.2-15.9-.2-.2-2.1.9-4.3 2.2zM1454.5 1382c-.3.5-.1 1 .4 1 .6 0 1.1-.5 1.1-1 0-.6-.2-1-.4-1-.3 0-.8.4-1.1 1zM1260.3 1492.5c-.3.9-.3 1.8 0 2.1.9.9 2.7-.6 2.7-2.2 0-1.9-1.9-1.8-2.7.1zM1210.5 1543.1c-1.1 1.7.1 2.1 1.5.4.8-.9.8-1.5.2-1.5-.6 0-1.4.5-1.7 1.1zM1058.6 1593.6c-.4.9-.4 1.9-.1 2.2.6.6 3.5-1.8 3.5-2.9 0-1.6-2.8-1-3.4.7zM1010 1623.5c-.7.9-1 1.8-.7 2.2.8.7 3.7-1.5 3.7-2.8 0-1.4-1.6-1.1-3 .6zM1000.7 1632.7c-.4.3-.7 1.1-.7 1.7 0 .6.5.5 1.2-.2.6-.6.9-1.4.7-1.7-.3-.3-.9-.2-1.2.2zM365 1664.1c0 .5.5.7 1 .4.6-.3 1-.8 1-1.1 0-.2-.4-.4-1-.4-.5 0-1 .5-1 1.1zM919.5 1674c-.3.5-.2 1 .4 1 .5 0 1.3-.5 1.6-1 .3-.6.2-1-.4-1-.5 0-1.3.4-1.6 1zM828.7 1683.7c-1.2 1.2-.7 2.2.8 1.7.8-.4 1.5-1 1.5-1.5 0-1.1-1.4-1.2-2.3-.2zM2490.5 2449.5c-20.9 5.6-83.4 22.4-139 37.3-206.9 55.5-403.3 108.1-412.5 110.6-70.8 18.8-85 22.7-85 23.8 0 2.6 8.5 31.8 9.2 31.8.9 0 29.7-7.7 148.3-39.5 53.5-14.4 392.2-105.1 417.5-111.9 64.8-17.3 110.4-29.6 110.8-30 .2-.3-1.5-7.7-3.8-16.5-3.3-12.5-4.7-16.1-5.9-16-.9 0-18.7 4.7-39.6 10.4z"/></svg>